<?xml version="1.0" standalone="no"?>
<!DOCTYPE svg PUBLIC "-//W3C//DTD SVG 20010904//EN"
 "http://www.w3.org/TR/2001/REC-SVG-20010904/DTD/svg10.dtd">
<svg version="1.0" xmlns="http://www.w3.org/2000/svg"
 width="28.000000pt" height="22.000000pt" viewBox="0 0 28.000000 22.000000"
 preserveAspectRatio="xMidYMid meet">

<g transform="translate(0.000000,22.000000) scale(0.100000,-0.100000)"
fill="#000000" stroke="none">
<path d="M10 110 l0 -100 30 0 c17 0 30 5 30 10 0 6 -7 10 -15 10 -12 0 -15
16 -15 80 0 64 3 80 15 80 8 0 15 5 15 10 0 6 -13 10 -30 10 l-30 0 0 -100z"/>
<path d="M210 200 c0 -5 7 -10 15 -10 12 0 15 -16 15 -80 0 -64 -3 -80 -15
-80 -8 0 -15 -4 -15 -10 0 -5 14 -10 30 -10 l30 0 0 100 0 100 -30 0 c-16 0
-30 -4 -30 -10z"/>
<path d="M112 159 c-35 -14 -26 -51 16 -64 17 -5 32 -15 32 -22 0 -16 -15 -17
-40 -1 -24 15 -37 4 -20 -17 16 -19 64 -20 80 0 19 23 8 48 -28 57 -44 12 -42
32 3 24 42 -8 48 9 9 24 -14 6 -26 10 -27 9 -1 0 -12 -4 -25 -10z"/>
</g>
</svg>
